<svg width="383" height="383" viewBox="0 0 383 383" fill="none" xmlns="http://www.w3.org/2000/svg">
<g clip-path="url(#clip0_1_272)">
<rect width="383" height="383" rx="191.5" fill="white"/>
<path d="M106.491 82.6721C106.491 82.6721 88.635 69.2957 86.065 76.3216C82.6834 86.0499 106.491 82.6721 106.491 82.6721Z" fill="#1561E5"/>
<path d="M98.2396 85.3728C93.2347 85.3728 87.4181 84.6973 84.9832 81.7247C84.0365 80.6439 83.2248 78.6171 84.1715 75.7797C84.7131 74.1583 85.7948 73.0773 87.4181 72.672C93.3697 70.9156 105.409 79.4278 107.709 81.1842L111.632 84.1568L106.763 84.8323C105.544 84.9675 102.028 85.3728 98.2396 85.3728ZM89.4465 76.3201C89.1764 76.3201 88.9063 76.3201 88.6349 76.4553C88.3648 76.5904 88.2297 76.7254 88.0947 76.9958C87.6882 78.3468 88.0947 78.7522 88.2297 79.0225C89.718 80.914 95.3995 81.3194 100.81 81.1842C96.4812 78.6171 91.8814 76.3201 89.4465 76.3201Z" fill="#B5CDFB"/>
<path d="M106.491 82.6737C106.491 82.6737 80.925 83.8897 84.9832 90.2402C90.6647 99.428 106.491 82.6737 106.491 82.6737Z" fill="#1561E5"/>
<path d="M89.7182 95.1043C89.4482 95.1043 89.1781 95.1043 88.9066 95.1043C86.4716 94.8339 84.5783 93.6179 83.2251 91.4562C82.4134 90.105 82.2784 88.6187 82.955 87.2675C85.66 82.1332 101.623 81.0522 106.493 80.782L111.498 80.5118L107.981 84.16C106.898 85.2408 97.4296 95.1043 89.7182 95.1043ZM86.4717 89.0241C86.4717 89.0241 86.4716 89.1591 86.6081 89.1591C87.2833 90.2401 88.0949 90.7805 89.3131 90.9157C92.5597 91.1858 97.2945 88.0782 100.811 85.1057C93.3713 86.0515 87.1483 87.6729 86.4717 89.0241Z" fill="#B5CDFB"/>
<path d="M165.066 660.687C182.652 660.012 199.425 666.632 214.981 660.687C222.151 602.453 216.74 368.704 213.358 344.788C209.842 321.008 199.695 307.091 185.762 291.417C179.405 284.257 163.848 282.23 154.244 279.257L161.413 285.879C186.98 332.897 165.066 660.687 165.066 660.687Z" fill="#1561E5"/>
<path d="M189.55 333.576H80.7898V455.314H189.55V333.576Z" fill="#2747AD"/>
<path d="M38.9894 377.081C29.7912 377.081 22.0799 370.056 21.4046 360.732C20.0514 342.492 23.4331 303.308 29.3847 269.53C37.7726 221.293 49.4057 189.811 64.0154 175.894C78.625 161.978 103.786 148.061 104.868 147.521C113.391 142.791 124.077 145.899 128.812 154.412C133.547 162.923 130.435 173.597 121.912 178.326C115.691 181.704 97.6994 192.514 88.2297 201.567C85.9298 203.728 74.1616 217.375 64.1504 275.609C58.3338 309.658 55.6288 345.059 56.5755 358.3C57.2521 368.028 49.9473 376.405 40.3426 377.081C39.801 377.081 39.3959 377.081 38.9894 377.081Z" fill="#1561E5"/>
<path d="M256.24 389.109H256.105L207.406 388.568L204.025 375.597C201.32 365.464 200.102 345.871 198.208 314.795C196.855 292.637 195.367 267.37 192.932 246.427C189.55 217.377 185.899 209.405 184.95 207.784C178.052 201.839 160.873 196.165 151.133 194.137C141.663 192.246 135.44 182.924 137.335 173.465C139.228 164.007 148.563 157.792 158.031 159.683C161.549 160.359 193.067 167.115 209.436 182.653C223.909 196.434 228.239 232.24 233.109 312.769C234.056 327.766 234.867 343.034 235.949 353.843L256.24 354.114C265.98 354.249 273.691 362.221 273.691 371.813C273.691 381.407 265.845 389.109 256.24 389.109Z" fill="#1561E5"/>
<path d="M109.469 154.416C95.6707 170.09 55.9001 207.517 52.3834 231.297C48.8653 255.348 81.7377 289.666 88.9075 347.901C116.909 358.71 154.109 366.141 179.947 351.144C181.84 348.712 207.001 251.834 207.271 249.538C207.678 244.944 207.948 228.73 207.948 228.73C207.948 228.73 205.513 194.275 200.913 189.952C188.198 177.791 198.343 176.711 187.387 167.117C177.917 158.875 152.216 148.065 138.823 147.796C121.643 147.255 119.885 142.526 109.469 154.416Z" fill="#ACCFFF"/>
<path d="M189.55 525.303C199.425 548.274 208.623 590.159 208.623 590.159C208.623 590.159 217.146 252.642 213.628 228.591C210.112 204.811 199.965 178.734 186.032 163.061C179.674 155.9 168.988 145.766 159.519 142.793L161.818 157.521C187.25 204.676 176.699 495.308 189.55 525.303Z" fill="#1561E5"/>
<path d="M179.946 274.394C179.541 274.394 179.134 274.259 178.864 274.124C177.918 273.583 177.646 272.233 178.188 271.286L195.774 243.453L177.918 204.946L203.754 185.083L172.911 153.062C172.1 152.251 172.1 151.034 172.911 150.223C173.723 149.413 174.941 149.413 175.753 150.223L209.707 185.489L182.923 206.026L200.372 243.588L181.569 273.314C181.299 274.124 180.623 274.394 179.946 274.394Z" fill="#81AFFF"/>
<path d="M298.176 373.026H186.439L235.002 202.511H346.74L298.176 373.026Z" fill="#44BAD3"/>
<path d="M332.805 208.593H245.419L248.936 196.568H336.324L332.805 208.593Z" fill="#1689A2"/>
<path d="M177.105 341.419C178.052 346.419 182.11 350.607 187.657 352.229C195.773 354.796 210.925 353.579 221.476 351.418C232.027 349.256 226.346 349.391 235.816 340.203C238.386 337.636 250.56 332.096 245.419 324.935C240.279 317.774 265.71 306.019 248.937 304.938C241.902 304.533 235.816 313.72 226.346 316.558C216.606 319.395 203.485 315.748 203.485 315.748L207.136 301.831C201.726 298.858 191.175 309.938 187.657 311.829C185.222 313.181 179.405 318.99 176.294 322.368C174.806 323.855 174.265 325.881 174.671 327.773L177.105 341.419Z" fill="#DCE8FF"/>
<path d="M46.7005 391.27C34.2543 391.27 23.2978 382.487 20.8628 369.922C18.1578 355.599 27.491 341.818 41.8306 339.116L154.108 317.632C168.447 314.93 182.245 324.252 184.951 338.575C187.656 352.898 178.322 366.679 163.983 369.381L51.7054 390.864C49.947 391.135 48.3237 391.27 46.7005 391.27Z" fill="#1561E5"/>
<path d="M274.91 367.491C274.91 367.491 306.428 331.416 311.434 335.875C316.439 340.334 301.288 371.68 298.311 373.031C296.959 373.572 294.794 379.112 284.108 379.517C270.852 379.923 258.542 375.598 256.377 371.68L274.91 367.491Z" fill="#DCE8FF"/>
<path d="M159.518 174.954C165.2 159.688 161.411 127.124 161.411 127.124L115.959 122.125C121.506 137.528 114.336 149.959 114.336 149.959C114.336 161.983 160.06 182.926 159.518 174.954Z" fill="#F49B7F"/>
<path d="M162.903 133.062L130.572 130.224C130.572 130.224 114.474 150.086 162.768 148.33C162.903 145.357 163.444 139.007 162.903 133.062Z" fill="#1F0885"/>
<path d="M187.928 73.2145V111.182C187.928 127.531 174.672 140.772 158.304 140.772L131.113 138.205C130.031 138.205 113.257 126.585 112.58 123.207L109.469 106.183V73.2145C109.469 56.8655 122.727 43.6243 139.095 43.6243H158.439C174.672 43.6243 187.928 56.8655 187.928 73.2145Z" fill="#F49B7F"/>
<path d="M190.497 83.3431H179.404C178.322 83.3431 177.376 82.3973 177.376 81.3164C177.376 80.2354 178.322 79.2897 179.404 79.2897H190.497C191.579 79.2897 192.525 80.2354 192.525 81.3164C192.525 82.5324 191.714 83.3431 190.497 83.3431Z" fill="#1F0885"/>
<path d="M140.31 86.8537C139.363 86.8537 138.552 86.178 138.28 85.2323C138.145 84.1513 138.822 83.0704 139.903 82.9353L152.215 80.7735C153.296 80.6383 154.378 81.3139 154.513 82.3949C154.648 83.4758 153.973 84.5566 152.89 84.6918L140.58 86.8537C140.445 86.8537 140.31 86.8537 140.31 86.8537Z" fill="#1F0885"/>
<path d="M166.825 109.965C166.554 109.965 166.283 109.965 166.148 109.83C165.743 109.559 165.606 109.154 165.743 108.749C165.878 108.343 166.283 108.208 166.69 108.343C167.366 108.343 170.613 107.938 172.776 106.722C173.723 106.182 174.264 104.966 173.994 103.885L169.395 87.1303C169.26 86.725 169.53 86.1845 169.936 86.0495C170.341 85.9143 170.883 86.1845 171.018 86.5898L175.618 103.344C176.158 105.236 175.346 107.127 173.588 108.073C171.694 109.289 168.448 109.965 166.825 109.965Z" fill="#216EF4"/>
<path d="M182.787 94.4213C184.356 94.4213 185.627 93.151 185.627 91.5839C185.627 90.0169 184.356 88.7465 182.787 88.7465C181.218 88.7465 179.946 90.0169 179.946 91.5839C179.946 93.151 181.218 94.4213 182.787 94.4213Z" fill="#1F0885"/>
<path d="M151.133 95.7739C152.702 95.7739 153.973 94.5035 153.973 92.9365C153.973 91.3695 152.702 90.0991 151.133 90.0991C149.564 90.0991 148.292 91.3695 148.292 92.9365C148.292 94.5035 149.564 95.7739 151.133 95.7739Z" fill="#1F0885"/>
<path d="M187.927 99.6932V111.178C187.927 127.527 172.506 142.795 158.438 142.795C144.505 142.795 131.112 138.201 131.112 138.201C131.112 138.201 138.552 130.635 140.311 120.906C141.663 113.34 131.112 101.855 131.112 101.855C131.112 101.855 169.124 97.9367 173.182 97.3962C175.347 97.126 182.11 98.4772 187.927 99.6932Z" fill="#1561E5"/>
<path d="M158.438 144.825C144.233 144.825 130.977 140.232 130.435 140.096L127.46 139.015L129.624 136.719C129.76 136.583 136.659 129.422 138.147 120.505C139.093 115.1 132.195 106.183 129.489 103.21L126.784 100.237L130.842 99.8321C131.247 99.8321 168.854 95.9138 172.913 95.3733C173.724 95.2383 176.024 94.968 188.334 97.8054L189.957 98.2107V111.317C189.957 127.801 173.994 144.825 158.438 144.825ZM134.63 137.124C139.229 138.475 148.698 140.772 158.438 140.772C170.748 140.772 185.899 127.125 185.899 111.182V101.318C176.429 99.2918 173.994 99.2918 173.453 99.4268C170.206 99.8321 144.91 102.399 135.17 103.48C138.417 107.669 143.287 115.1 142.34 121.18C140.987 128.071 137.2 134.016 134.63 137.124Z" fill="#B5CDFB"/>
<path d="M131.112 140.093C130.437 140.093 129.76 139.823 129.489 139.147L107.846 107.125C107.169 106.179 107.439 104.963 108.386 104.288C109.334 103.612 110.551 103.882 111.227 104.828L132.872 136.85C133.547 137.796 133.277 139.012 132.33 139.688C131.924 139.958 131.519 140.093 131.112 140.093Z" fill="#B5CDFB"/>
<path d="M113.526 107.263C105.544 107.263 97.1578 100.913 97.1578 92.941C97.1578 84.9693 101.621 81.3212 109.468 81.3212" fill="#F49B7F"/>
<path d="M131.113 103.748C130.572 103.748 130.03 103.477 129.625 103.072L109.062 80.1025C108.251 79.2918 108.387 77.9406 109.199 77.2651C110.01 76.4544 111.362 76.5896 112.039 77.4003L132.6 100.37C133.412 101.18 133.277 102.532 132.465 103.207C132.06 103.613 131.653 103.748 131.113 103.748Z" fill="#B5CDFB"/>
<path opacity="0.14" d="M166.959 109.828C166.689 109.828 166.418 109.828 166.283 109.693C166.013 109.558 165.878 109.153 166.013 108.748C166.148 108.477 166.553 108.342 166.824 108.342C167.364 108.342 170.747 107.937 173.046 106.586C174.129 106.045 174.669 104.694 174.264 103.613L172.506 97.3979C172.371 96.9925 172.641 96.7223 173.046 96.5872C173.453 96.452 173.723 96.7223 173.858 97.1277L175.617 103.343C176.158 105.099 175.346 106.991 173.723 107.937C171.559 109.153 168.313 109.828 166.959 109.828Z" fill="#B5CDFB"/>
<path d="M104.328 80.5074C94.7231 56.3217 103.381 32.9468 133.141 25.5156C143.827 22.8132 168.311 27.137 176.023 33.8927C183.598 40.6484 186.844 50.1065 187.656 60.7805C187.791 63.2126 185.356 64.9691 183.192 64.0233C179.539 62.537 173.723 60.7805 165.336 60.7805C149.643 60.7805 139.364 64.0233 127.866 72.2653C116.367 80.5074 104.328 80.5074 104.328 80.5074Z" fill="#1561E5"/>
<path d="M102.839 82.5338L102.298 81.1828C97.1578 68.0766 97.1578 55.1055 102.434 44.8369C107.844 34.4329 118.261 27.0017 132.465 23.4886C143.422 20.7863 168.853 24.9749 177.241 32.2712C184.546 38.7567 188.604 47.9445 189.55 60.5102C189.685 62.4017 188.874 64.1583 187.386 65.2392C185.897 66.3202 184.004 66.5904 182.246 65.7797C178.999 64.4285 173.318 62.8071 165.201 62.8071C150.05 62.8071 140.31 65.7797 128.947 73.8866C117.044 82.3988 104.733 82.5338 104.193 82.669L102.839 82.5338ZM141.257 26.7314C138.417 26.7314 135.712 27.0017 133.682 27.542C120.561 30.7848 111.091 37.5407 106.221 46.8636C101.623 55.7812 101.486 66.9957 105.681 78.4804C109.062 78.2102 118.126 76.724 126.784 70.6438C138.687 62.1316 149.645 58.7536 165.471 58.7536C174.264 58.7536 180.487 60.6453 184.139 62.1316C184.681 62.4017 185.222 62.1316 185.357 61.9964C185.492 61.8614 185.897 61.5911 185.897 60.9155C185.086 49.5659 181.434 41.1888 174.941 35.5139C169.259 30.5146 152.891 26.7314 141.257 26.7314Z" fill="#B5CDFB"/>
<path d="M113.796 674.743C96.2113 674.067 34.9313 656.638 34.9313 656.638C34.9313 656.638 49.0008 252.644 52.3824 228.728C55.8991 204.949 71.4554 183.06 85.2534 167.386C91.6115 160.226 107.574 145.092 117.179 142.12C117.179 142.12 115.691 148.065 114.338 149.956C112.173 153.064 112.849 159.55 112.849 159.82C115.014 176.979 113.796 674.743 113.796 674.743Z" fill="#1561E5"/>
<path d="M110.551 267.779C109.876 267.779 109.199 267.51 108.793 266.834L86.743 233.595L99.7294 206.032L73.2151 180.09L104.058 148.067C104.869 147.257 106.088 147.257 106.899 148.067C107.711 148.878 107.711 150.094 106.899 150.905L78.7616 180.09L104.464 205.221L91.3429 233.324L112.174 264.671C112.851 265.617 112.581 266.834 111.634 267.51C111.228 267.644 110.822 267.779 110.551 267.779Z" fill="#81AFFF"/>
<path d="M102.569 91.8538C102.299 91.8538 102.164 91.8538 101.892 91.7187C101.216 91.3133 100.946 90.5026 101.352 89.8271C103.111 86.7193 106.762 87.1247 108.386 87.9354C109.062 88.2057 109.332 89.0164 109.062 89.6919C108.792 90.3675 107.981 90.6378 107.304 90.3675C107.034 90.2324 104.599 89.2866 103.651 91.0431C103.516 91.5835 103.111 91.8538 102.569 91.8538Z" fill="#1F0885"/>
</g>
<defs>
<clipPath id="clip0_1_272">
<rect width="383" height="383" rx="191.5" fill="white"/>
</clipPath>
</defs>
</svg>
